<svg width="20" height="20" viewBox="0 0 20 20" fill="none" xmlns="http://www.w3.org/2000/svg">
<g clip-path="url(#clip0_336033_73)">
<path d="M2.92996 17.07C1.97486 16.1475 1.21303 15.044 0.688943 13.824C0.164853 12.604 -0.111009 11.2918 -0.122547 9.96397C-0.134085 8.63618 0.118932 7.31938 0.62174 6.09042C1.12455 4.86145 1.86708 3.74493 2.80601 2.80601C3.74493 1.86708 4.86145 1.12455 6.09042 0.62174C7.31938 0.118932 8.63618 -0.134085 9.96397 -0.122547C11.2918 -0.111009 12.604 0.164853 13.824 0.688943C15.044 1.21303 16.1475 1.97486 17.07 2.92996C18.8915 4.81598 19.8995 7.342 19.8767 9.96397C19.8539 12.5859 18.8022 15.0941 16.9481 16.9481C15.0941 18.8022 12.5859 19.8539 9.96397 19.8767C7.342 19.8995 4.81598 18.8915 2.92996 17.07ZM8.99996 4.99996V11H11V4.99996H8.99996ZM8.99996 13V15H11V13H8.99996Z" fill="black"/>
</g>
<defs>
<clipPath id="clip0_336033_73">
<rect width="20" height="20" fill="white"/>
</clipPath>
</defs>
</svg>
